<?xml version="1.0" standalone="no"?>
<!DOCTYPE svg PUBLIC "-//W3C//DTD SVG 20010904//EN"
 "http://www.w3.org/TR/2001/REC-SVG-20010904/DTD/svg10.dtd">
<svg version="1.0" xmlns="http://www.w3.org/2000/svg"
 width="700.000000pt" height="700.000000pt" viewBox="0 0 700.000000 700.000000"
 preserveAspectRatio="xMidYMid meet">
<metadata>
Created by potrace 1.14, written by Peter Selinger 2001-2017
</metadata>
<g transform="translate(0.000000,700.000000) scale(0.100000,-0.100000)"
fill="#000000" stroke="none">
<path d="M1925 6327 c-863 -308 -1572 -562 -1574 -564 -6 -5 469 -4135 478
-4158 6 -13 471 -275 1337 -754 730 -404 1332 -734 1338 -734 6 0 610 332
1341 736 l1330 736 241 2083 c132 1146 238 2086 235 2090 -6 6 -3092 1109
-3136 1120 -12 3 -669 -226 -1590 -555z m1638 -911 c18 -7 45 -27 59 -44 14
-17 137 -251 273 -519 136 -268 251 -492 255 -496 4 -5 252 -49 551 -97 299
-49 554 -92 566 -95 33 -8 84 -55 99 -92 19 -44 18 -97 -2 -136 -9 -17 -195
-213 -413 -434 -351 -357 -396 -406 -392 -431 1 -15 40 -269 86 -565 86 -558
87 -576 50 -633 -30 -47 -73 -66 -140 -61 -56 3 -96 22 -552 255 -270 139
-497 252 -504 252 -7 0 -94 -42 -193 -94 -100 -52 -326 -166 -503 -255 -351
-176 -369 -182 -442 -140 -53 30 -74 65 -79 129 -2 36 24 236 77 580 45 289
83 534 86 544 3 15 -94 118 -391 418 -217 220 -404 414 -415 431 -22 37 -25
94 -5 140 15 37 66 84 99 92 12 3 266 45 565 94 299 49 547 92 552 97 4 5 121
232 259 504 138 272 257 502 264 511 40 53 125 73 190 45z"/>
</g>
</svg>
