<svg version="1" xmlns="http://www.w3.org/2000/svg" width="933.333" height="933.333" viewBox="0 0 700.000000 700.000000"><path d="M192.5 67.3c-86.3 30.8-157.2 56.2-157.4 56.4-.6.5 46.9 413.5 47.8 415.8.6 1.3 46.8 27.4 133.6 75.4 73.1 40.4 133.3 73.4 133.9 73.4.6 0 61-33.2 134.1-73.7L617.6 541l16.8-146.3c9.3-80.4 20.1-174.1 24.1-208.2 3.9-34.1 6.9-62.3 6.6-62.7-.5-.6-314.8-112.9-315.4-112.7-.1.1-70.8 25.3-157.2 56.2zm163.8 91.1c1.8.7 4.5 2.7 5.9 4.4 1.4 1.7 13.7 25 27.3 51.9 13.6 26.8 25.1 49.2 25.5 49.7.5.5 25.2 4.8 55 9.7 29.8 4.8 55.6 9.3 57.4 9.9 8.8 2.9 13.1 13.7 8.7 22.2-1 2-19.6 21.7-41.2 43.7-25.3 25.7-39.3 40.7-39.2 41.8.1 1 3.9 25.3 8.3 53.9 4.4 28.7 8 54.5 8 57.4 0 6.3-2.5 10.9-7.6 14.1-2.8 1.7-4.6 2-9.2 1.7-5.1-.4-11.1-3.2-54.9-25.6-27-13.9-49.7-25.2-50.4-25.2-.7 0-9.4 4.2-19.3 9.4-10 5.2-32.6 16.6-50.3 25.5-27 13.5-32.9 16.1-36.6 16.1-8.3 0-15.7-7.5-15.7-16 0-3.4 13.1-91.9 16.4-110.9.3-2-6-8.8-40-43.2-44.5-45-44-44.4-41.5-53.7 1.4-5.5 5.1-9.7 9.6-11.2 1.8-.6 27.6-5.1 57.5-10 29.8-4.8 54.6-9.2 55-9.7.4-.4 11.9-22.9 25.5-49.8 13.6-27 26-50.3 27.4-51.9 4.8-5.3 11.9-7 18.4-4.2z"/></svg>