<?xml version="1.0" encoding="utf-8"?>
<!-- Generator: Adobe Illustrator 18.0.0, SVG Export Plug-In . SVG Version: 6.00 Build 0)  -->
<!DOCTYPE svg PUBLIC "-//W3C//DTD SVG 1.1//EN" "http://www.w3.org/Graphics/SVG/1.1/DTD/svg11.dtd">
<svg version="1.1" id="Layer_1" xmlns="http://www.w3.org/2000/svg" xmlns:xlink="http://www.w3.org/1999/xlink" x="0px" y="0px"
	 viewBox="0 0 300 300" enable-background="new 0 0 300 300" xml:space="preserve">
<polygon fill="#4278F5" points="150,4.8 150,4.8 150,4.8 14.8,53 35.4,231.8 150,295.2 150,295.2 150,295.2 264.6,231.8 285.2,53 
	"/>
<polygon fill="#3566ce" points="150,4.8 150,37 150,36.9 150,184 150,184 150,295.2 150,295.2 264.6,231.8 285.2,53 "/>
<g>
	<path fill="#EDB866" d="M195.5,222.8c-1.1,0-2.2-0.3-3.3-0.8L150,200.5L107.8,222c-1,0.5-2.2,0.8-3.3,0.8c-1.5,0-3-0.5-4.2-1.4
		c-2.2-1.6-3.3-4.3-2.9-7l7.3-47.2l-33.4-33.9c-1.9-1.9-2.6-4.7-1.7-7.3c0.8-2.6,3-4.5,5.7-4.9l46.7-7.6l21.6-42.5
		c1.2-2.4,3.7-3.9,6.4-3.9s5.2,1.5,6.4,3.9l21.6,42.5l46.7,7.6c2.7,0.4,4.9,2.3,5.7,4.9c0.8,2.6,0.2,5.4-1.7,7.3l-33.4,33.9
		l7.3,47.2c0.4,2.7-0.7,5.4-2.9,7C198.4,222.4,197,222.8,195.5,222.8z"/>
	<g opacity="0.1">
		<path fill="#424143" d="M115.5,217.8c-2.2-1.6-3.3-4.3-2.9-7l7.3-47.2l-33.4-33.9c-1.9-1.9-2.6-4.7-1.7-7.3c0.4-1.2,1.1-2.2,2-3
			l-11.4,1.9c-2.7,0.4-4.9,2.3-5.7,4.9c-0.8,2.6-0.2,5.4,1.7,7.3l33.4,33.9l-7.3,47.2c-0.4,2.7,0.7,5.4,2.9,7
			c1.3,0.9,2.7,1.4,4.2,1.4c1.1,0,2.2-0.3,3.3-0.8l8-4.1C115.7,217.9,115.6,217.8,115.5,217.8z"/>
	</g>
</g>
</svg>
