<?xml version="1.0" encoding="iso-8859-1"?>
<!-- Generator: Adobe Illustrator 19.0.0, SVG Export Plug-In . SVG Version: 6.00 Build 0)  -->
<svg version="1.1" id="Layer_1" xmlns="http://www.w3.org/2000/svg" xmlns:xlink="http://www.w3.org/1999/xlink" x="0px" y="0px"
	 viewBox="0 0 129.267 129.267" style="enable-background:new 0 0 129.267 129.267;" xml:space="preserve">
<g>
	<g>
		<g>
			<g>
				<path style="fill:#F4D3A2;" d="M113.843,85.388c0,20.676-22.032,37.441-49.209,37.441c-27.178,0-49.209-16.766-49.209-37.441
					c0-20.68,22.031-45.459,49.209-45.459C91.81,39.929,113.843,64.708,113.843,85.388z"/>
			</g>
			<g>
				<path style="fill:#7C34C1;" d="M113.843,85.388c0,20.676-22.032,37.441-49.209,37.441c-27.178,0-49.209-16.766-49.209-37.441
					c0-20.68,22.031-34.928,49.209-34.928C91.81,50.46,113.843,64.708,113.843,85.388z"/>
			</g>
			<g>
				<path style="fill:#5F1DAA;" d="M113.843,85.388c0,20.676-22.032,37.441-49.209,37.441c-27.178,0-49.209-16.766-49.209-37.441
					c0-20.682,6.261,18.34,49.209,18.34C107.581,103.728,113.843,64.706,113.843,85.388z"/>
			</g>
			<g>
				<path style="fill:#33363A;" d="M64.634,124.33c-27.961,0-50.709-17.469-50.709-38.941c0-21.27,22.62-46.959,50.709-46.959
					s50.709,25.689,50.709,46.959C115.343,106.861,92.595,124.33,64.634,124.33z M64.634,41.429
					c-26.428,0-47.709,24.048-47.709,43.959c0,19.818,21.402,35.941,47.709,35.941s47.709-16.123,47.709-35.941
					C112.343,65.477,91.062,41.429,64.634,41.429z"/>
			</g>
		</g>
		<g>
			<path style="fill:#8844D8;" d="M75.069,97.669c0,1.393-4.691,1.643-10.479,1.643s-10.478-0.25-10.478-1.643
				c0-1.395,4.691-5.037,10.478-5.037S75.069,96.275,75.069,97.669z"/>
		</g>
		<g>
			<g>
				<g>
					<g>
						<polygon style="fill:#5F1DAA;" points="93.97,114.425 116.442,112.896 115.052,104.058 127.767,98.464 120.718,86.494 
							127.013,80.136 109.67,65.763 95.016,80.568 95.876,81.281 86.835,85.257 91.845,93.767 90.729,93.845 						"/>
					</g>
					<g>
						<path style="fill:#33363A;" d="M93.968,115.925c-0.782,0-1.441-0.606-1.495-1.398c-0.056-0.826,0.568-1.542,1.395-1.598
							l20.838-1.419l-1.136-7.219c-0.105-0.673,0.255-1.332,0.878-1.606l11.17-4.914l-6.192-10.517
							c-0.346-0.586-0.252-1.332,0.227-1.816l5.142-5.192l-16.081-13.327c-0.638-0.529-0.727-1.475-0.198-2.112
							c0.529-0.639,1.474-0.726,2.112-0.198l17.343,14.373c0.324,0.269,0.521,0.661,0.541,1.082c0.021,0.42-0.136,0.83-0.432,1.129
							l-5.482,5.536l6.462,10.976c0.217,0.369,0.267,0.813,0.135,1.222c-0.132,0.407-0.432,0.739-0.824,0.912l-11.658,5.129
							l1.211,7.696c0.065,0.416-0.047,0.84-0.31,1.169c-0.262,0.329-0.651,0.532-1.07,0.561l-22.473,1.529
							C94.037,115.924,94.002,115.925,93.968,115.925z"/>
					</g>
				</g>
			</g>
			<g>
				<g>
					<g>
						<polygon style="fill:#5F1DAA;" points="35.296,114.425 12.824,112.896 14.216,104.058 1.5,98.464 8.549,86.494 2.254,80.136 
							19.597,65.763 34.251,80.568 33.391,81.281 42.433,85.257 37.423,93.767 38.537,93.845 						"/>
					</g>
					<g>
						<path style="fill:#33363A;" d="M35.297,115.925c-0.034,0-0.069-0.001-0.104-0.004l-22.472-1.529
							c-0.419-0.028-0.808-0.231-1.071-0.561c-0.262-0.329-0.375-0.753-0.309-1.169l1.212-7.696L0.896,99.837
							c-0.392-0.173-0.692-0.505-0.824-0.912c-0.131-0.408-0.082-0.853,0.135-1.222L6.67,86.728l-5.482-5.536
							c-0.296-0.299-0.453-0.709-0.432-1.129c0.021-0.421,0.217-0.813,0.541-1.082L18.64,64.608
							c0.638-0.527,1.584-0.439,2.112,0.198c0.529,0.638,0.44,1.583-0.198,2.112L4.473,80.246l5.142,5.192
							c0.479,0.484,0.572,1.23,0.227,1.816L3.649,97.771l11.171,4.914c0.623,0.274,0.984,0.934,0.878,1.606l-1.137,7.219
							l20.837,1.419c0.826,0.056,1.451,0.771,1.395,1.598C36.739,115.319,36.08,115.925,35.297,115.925z"/>
					</g>
				</g>
			</g>
		</g>
	</g>
	<g>
		<ellipse style="fill:#CC4306;" cx="64.634" cy="97.482" rx="12.83" ry="7.928"/>
	</g>
	<g>
		<path style="fill:#A83C11;" d="M77.464,97.482c0,4.379-5.745,7.928-12.83,7.928c-7.086,0-12.83-3.549-12.83-7.928
			c0-4.379,5.744-1.049,12.83-1.049C71.719,96.433,77.464,93.103,77.464,97.482z"/>
	</g>
	<g>
		<g>
			<polygon style="fill:#8844D8;" points="93.505,52.261 84.07,31.267 75.054,35.32 64.633,24.9 54.213,35.32 45.196,31.267 
				35.762,52.261 56.753,61.697 57.222,60.652 64.633,68.064 72.044,60.654 72.513,61.697 			"/>
		</g>
		<g>
			<polygon style="fill:#7C34C1;" points="75.054,52.902 64.633,42.482 54.213,52.902 45.196,48.849 42.335,55.214 56.753,61.697 
				57.222,60.652 64.633,68.064 72.044,60.654 72.513,61.697 86.931,55.214 84.07,48.849 			"/>
		</g>
		<g>
			<path style="fill:#33363A;" d="M93.506,53.761c-0.573,0-1.119-0.329-1.369-0.885l-8.82-19.626l-7.648,3.438
				c-0.568,0.257-1.235,0.132-1.675-0.308l-9.36-9.359l-9.359,9.359c-0.44,0.438-1.107,0.563-1.675,0.308L45.95,33.25l-8.82,19.626
				c-0.339,0.756-1.227,1.094-1.983,0.753c-0.756-0.34-1.093-1.228-0.753-1.983l9.435-20.994c0.163-0.362,0.463-0.646,0.835-0.787
				s0.786-0.129,1.147,0.034l8.073,3.629l9.688-9.688c0.586-0.586,1.535-0.586,2.121,0l9.689,9.688l8.073-3.629
				c0.362-0.163,0.775-0.176,1.147-0.034s0.672,0.425,0.835,0.787l9.435,20.994c0.34,0.756,0.002,1.644-0.753,1.983
				C93.92,53.719,93.711,53.761,93.506,53.761z"/>
		</g>
	</g>
	<g>
		<g>
			<g>
				<polygon style="fill:#8844D8;" points="48.916,39.441 27.257,33.257 25.567,42.044 11.709,42.994 14.28,56.644 6.202,60.492 
					17.642,79.894 36.448,70.937 35.881,69.976 45.735,69.3 43.909,59.595 44.984,59.9 				"/>
			</g>
			<g>
				<polygon style="fill:#7C34C1;" points="39.429,52.759 25.569,53.708 28.142,67.361 20.061,71.206 23.531,77.089 36.448,70.937 
					35.881,69.976 45.735,69.3 43.909,59.595 44.984,59.9 47.685,45.849 41.118,43.972 				"/>
			</g>
			<g>
				<path style="fill:#33363A;" d="M17.643,81.394c-0.514,0-1.014-0.264-1.293-0.738L4.91,61.253
					c-0.214-0.362-0.266-0.798-0.143-1.2s0.41-0.734,0.79-0.916l7.035-3.351l-2.357-12.516c-0.079-0.421,0.025-0.855,0.288-1.194
					c0.262-0.34,0.656-0.55,1.084-0.579l12.706-0.871l1.471-7.652c0.08-0.413,0.329-0.774,0.688-0.994
					c0.357-0.222,0.792-0.283,1.197-0.165l21.659,6.184c0.797,0.228,1.258,1.058,1.031,1.854c-0.228,0.796-1.059,1.258-1.854,1.03
					L28.42,35.15l-1.38,7.178c-0.129,0.669-0.691,1.167-1.371,1.213l-12.174,0.834l2.259,11.992
					c0.126,0.669-0.214,1.339-0.829,1.632l-6.599,3.143l10.607,17.991c0.421,0.714,0.184,1.633-0.53,2.054
					C18.164,81.328,17.902,81.394,17.643,81.394z"/>
			</g>
		</g>
		<g>
			<g>
				<polygon style="fill:#8844D8;" points="80.351,39.441 102.009,33.257 103.698,42.044 117.558,42.994 114.985,56.644 
					123.064,60.492 111.624,79.894 92.817,70.937 93.386,69.976 83.53,69.3 85.356,59.595 84.282,59.9 				"/>
			</g>
			<g>
				<polygon style="fill:#7C34C1;" points="89.837,52.759 103.697,53.708 101.125,67.361 109.204,71.206 105.735,77.089 
					92.817,70.937 93.386,69.976 83.53,69.3 85.356,59.595 84.282,59.9 81.581,45.849 88.148,43.972 				"/>
			</g>
			<g>
				<path style="fill:#33363A;" d="M111.623,81.394c-0.259,0-0.521-0.066-0.76-0.208c-0.714-0.421-0.951-1.34-0.53-2.054
					l10.608-17.991l-6.6-3.143c-0.615-0.293-0.955-0.963-0.829-1.632l2.26-11.992l-12.175-0.834
					c-0.679-0.046-1.242-0.544-1.371-1.213l-1.38-7.178l-20.083,5.733c-0.792,0.228-1.626-0.233-1.854-1.03s0.234-1.627,1.031-1.854
					l21.658-6.184c0.405-0.116,0.839-0.057,1.197,0.165c0.358,0.22,0.608,0.581,0.688,0.994l1.471,7.652l12.707,0.871
					c0.428,0.029,0.822,0.239,1.084,0.579c0.262,0.339,0.367,0.773,0.288,1.194l-2.358,12.516l7.036,3.351
					c0.38,0.182,0.667,0.514,0.79,0.916s0.071,0.838-0.143,1.2l-11.44,19.402C112.636,81.13,112.136,81.394,111.623,81.394z"/>
			</g>
		</g>
	</g>
	<g>
		<path style="fill:#CC4306;" d="M49.548,85.169c0,6.805-5.512,12.313-12.313,12.313c-6.799,0-12.311-5.508-12.311-12.313
			c0-6.799,5.512-12.311,12.311-12.311C44.036,72.859,49.548,78.371,49.548,85.169z"/>
	</g>
	<g>
		<circle style="fill:#FFFFFF;" cx="31.113" cy="81.167" r="5.017"/>
	</g>
	<path style="fill:#33363A;" d="M37.235,71.359c-4.514,0-8.517,2.187-11.039,5.547c-0.367,0.423-0.679,0.893-0.928,1.4
		c-1.166,2.025-1.843,4.365-1.843,6.864c0,7.616,6.195,13.813,13.811,13.813c7.616,0,13.813-6.196,13.813-13.813
		C51.048,77.554,44.852,71.359,37.235,71.359z M37.235,95.982c-4.619,0-8.56-2.918-10.105-7.003
		c2.224,0.346,5.919-1.266,10.105-1.266c4.186,0,7.882,1.612,10.106,1.266C45.796,93.064,41.855,95.982,37.235,95.982z"/>
	<path style="fill:#FFFFFF;" d="M31.112,77.654c-1.938,0-3.516,1.576-3.516,3.514c0,1.939,1.577,3.518,3.516,3.518
		c1.939,0,3.518-1.578,3.518-3.518C34.63,79.23,33.052,77.654,31.112,77.654z"/>
	<g>
		<path style="fill:#CC4306;" d="M104.341,85.169c0,6.805-5.512,12.313-12.31,12.313c-6.801,0-12.313-5.508-12.313-12.313
			c0-6.799,5.512-12.311,12.313-12.311C98.829,72.859,104.341,78.371,104.341,85.169z"/>
	</g>
	<g>
		<circle style="fill:#FFFFFF;" cx="85.907" cy="81.167" r="5.016"/>
	</g>
	<path style="fill:#33363A;" d="M92.03,71.359c-4.519,0-8.526,2.191-11.048,5.556c-0.36,0.417-0.667,0.879-0.913,1.377
		c-1.171,2.028-1.852,4.372-1.852,6.877c0,7.616,6.196,13.813,13.813,13.813c7.615,0,13.811-6.196,13.811-13.813
		C105.841,77.554,99.645,71.359,92.03,71.359z M92.03,95.982c-4.62,0-8.561-2.918-10.107-7.003c2.224,0.346,5.92-1.266,10.107-1.266
		c4.185,0,7.88,1.612,10.105,1.266C100.59,93.064,96.649,95.982,92.03,95.982z"/>
	<path style="fill:#FFFFFF;" d="M85.907,77.654c-1.938,0-3.516,1.576-3.516,3.514c0,1.939,1.577,3.518,3.516,3.518
		s3.516-1.578,3.516-3.518C89.423,79.23,87.846,77.654,85.907,77.654z"/>
	<g>
		<g>
			<g>
				<polyline style="fill:#9A5AE5;" points="81.227,58.38 82.399,12.019 65.1,52.503 				"/>
			</g>
			<g>
				<polyline style="fill:#7C34C1;" points="81.227,71.263 82.399,24.9 65.1,65.384 				"/>
			</g>
			<g>
				<path style="fill:#33363A;" d="M81.228,59.88c-0.013,0-0.025,0-0.039,0c-0.828-0.021-1.482-0.71-1.461-1.538l0.974-38.534
					L66.479,53.093c-0.326,0.762-1.208,1.116-1.969,0.789c-0.762-0.325-1.116-1.206-0.79-1.969l17.3-40.484
					c0.283-0.661,0.997-1.03,1.699-0.876c0.703,0.153,1.198,0.784,1.18,1.504l-1.172,46.361
					C82.707,59.234,82.039,59.88,81.228,59.88z"/>
			</g>
		</g>
		<g>
			<g>
				<polyline style="fill:#9A5AE5;" points="48.04,58.38 46.866,12.019 64.167,52.503 				"/>
			</g>
			<g>
				<polyline style="fill:#7C34C1;" points="48.04,71.263 46.866,24.9 64.167,65.384 				"/>
			</g>
			<g>
				<path style="fill:#33363A;" d="M48.04,59.88c-0.811,0-1.479-0.646-1.499-1.462l-1.174-46.361
					c-0.018-0.72,0.477-1.351,1.18-1.504c0.705-0.153,1.416,0.215,1.699,0.876l17.301,40.484c0.326,0.762-0.028,1.644-0.79,1.969
					c-0.761,0.329-1.643-0.027-1.969-0.789L48.564,19.809l0.976,38.533c0.021,0.828-0.633,1.517-1.461,1.538
					C48.065,59.88,48.052,59.88,48.04,59.88z"/>
			</g>
		</g>
	</g>
	<g>
		<path style="fill:#33363A;" d="M11.589,4.937c-0.268,0-0.516,0.076-0.734,0.199C9.216,5.44,7.964,6.936,7.964,8.74
			c0,2.021,1.57,3.666,3.5,3.666s3.5-1.645,3.5-3.666c0-0.206-0.027-0.405-0.058-0.602C28.982,9.786,39.942,21.78,39.942,36.292
			c0,0.828,0.671,1.5,1.5,1.5s1.5-0.672,1.5-1.5C42.942,19.003,28.877,4.937,11.589,4.937z M11.464,9.406
			c-0.271,0-0.5-0.305-0.5-0.666c0-0.362,0.229-0.668,0.5-0.668s0.5,0.306,0.5,0.668C11.964,9.101,11.735,9.406,11.464,9.406z"/>
		<path style="fill:#33363A;" d="M118.413,5.136c-0.218-0.123-0.466-0.199-0.734-0.199c-17.289,0-31.354,14.066-31.354,31.355
			c0,0.828,0.671,1.5,1.5,1.5s1.5-0.672,1.5-1.5c0-14.513,10.96-26.506,25.036-28.155c-0.031,0.197-0.058,0.396-0.058,0.602
			c0,2.021,1.57,3.666,3.5,3.666s3.5-1.645,3.5-3.666C121.303,6.936,120.051,5.441,118.413,5.136z M117.803,9.406
			c-0.271,0-0.5-0.305-0.5-0.666c0-0.362,0.229-0.668,0.5-0.668s0.5,0.306,0.5,0.668C118.303,9.101,118.074,9.406,117.803,9.406z"/>
	</g>
	<g>
		<polyline style="fill:#FFFFFF;" points="62.048,103.523 58.694,110.851 55.343,103.523 		"/>
	</g>
	<g>
		<polyline style="fill:#FFFFFF;" points="73.925,103.523 70.571,110.851 67.22,103.523 		"/>
	</g>
	<path style="fill:#33363A;" d="M78.964,97.482c0-5.288-6.294-9.43-14.33-9.43s-14.33,4.142-14.33,9.43
		c0,2.431,1.343,4.614,3.563,6.269c0.021,0.134,0.053,0.267,0.112,0.396l3.352,7.328c0.244,0.533,0.777,0.876,1.364,0.876
		s1.12-0.342,1.364-0.876l2.153-4.705c0.788,0.085,1.593,0.139,2.423,0.139c0.829,0,1.634-0.054,2.422-0.139l2.152,4.705
		c0.244,0.533,0.777,0.876,1.364,0.876s1.12-0.342,1.364-0.876l3.354-7.328c0.059-0.129,0.091-0.262,0.112-0.396
		C77.621,102.096,78.964,99.913,78.964,97.482z M58.695,107.246l-0.62-1.356c0.356,0.118,0.717,0.23,1.091,0.328L58.695,107.246z
		 M70.572,107.246l-0.47-1.028c0.373-0.099,0.735-0.21,1.091-0.328L70.572,107.246z M68.827,103.431l-0.243-0.532
		c-0.345-0.753-1.234-1.087-1.988-0.74c-0.665,0.304-0.999,1.032-0.832,1.717c-0.372,0.022-0.749,0.034-1.13,0.034
		c-0.381,0-0.757-0.012-1.13-0.034c0.167-0.684-0.168-1.413-0.832-1.717c-0.753-0.346-1.644-0.013-1.988,0.74l-0.244,0.532
		c-4.136-0.968-7.137-3.3-7.137-5.949c0-3.485,5.188-6.43,11.33-6.43s11.33,2.944,11.33,6.43
		C75.964,100.131,72.963,102.463,68.827,103.431z"/>
</g>
<g>
</g>
<g>
</g>
<g>
</g>
<g>
</g>
<g>
</g>
<g>
</g>
<g>
</g>
<g>
</g>
<g>
</g>
<g>
</g>
<g>
</g>
<g>
</g>
<g>
</g>
<g>
</g>
<g>
</g>
</svg>
